<?xml version="1.0" standalone="no"?>
<!DOCTYPE svg PUBLIC "-//W3C//DTD SVG 20010904//EN"
 "http://www.w3.org/TR/2001/REC-SVG-20010904/DTD/svg10.dtd">
<svg version="1.0" xmlns="http://www.w3.org/2000/svg"
 width="12.000000pt" height="12.000000pt" viewBox="0 0 12.000000 12.000000"
 preserveAspectRatio="xMidYMid meet">
<metadata>
Created by potrace 1.16, written by Peter Selinger 2001-2019
</metadata>
<g transform="translate(0.000000,12.000000) scale(0.001172,-0.001172)"
fill="#000000" stroke="none">
<path d="M5114 8185 c140 -33 326 -93 371 -121 11 -6 40 -23 65 -36 290 -154
439 -334 520 -625 28 -99 37 -275 20 -370 -59 -334 -182 -585 -385 -789 -209
-210 -444 -342 -920 -514 -82 -29 -173 -57 -302 -91 -198 -51 -190 -56 85 -51
262 5 310 0 587 -60 184 -39 469 -152 625 -246 19 -12 48 -29 63 -37 85 -48
276 -203 378 -306 231 -234 391 -534 449 -837 53 -279 44 -522 -26 -777 -56
-199 -142 -398 -227 -525 -20 -30 -37 -60 -37 -67 0 -6 -4 -13 -8 -15 -5 -1
-30 -31 -57 -66 -78 -103 -265 -284 -364 -352 -50 -34 -90 -65 -87 -67 10 -11
267 84 316 116 14 9 39 23 55 31 17 8 59 36 93 63 35 26 78 54 95 62 43 20
190 124 257 183 30 26 84 71 120 99 133 106 372 372 503 560 21 29 37 55 37
57 0 3 20 33 44 68 159 231 324 620 397 940 98 431 102 843 13 1338 -45 248
-202 661 -336 881 -123 201 -171 273 -231 347 -258 320 -468 513 -805 740
-231 156 -571 318 -817 391 -217 63 -403 101 -530 106 l-110 5 149 -35z m903
-2202 c-3 -10 -8 -36 -12 -58 -17 -107 -85 -240 -148 -288 -42 -31 -112 -67
-133 -67 -13 0 -15 6 -10 33 13 73 18 236 8 266 -11 30 -10 31 31 41 69 18
190 60 217 75 34 20 52 19 47 -2z"/>
<path d="M5326 3525 c-58 -128 -96 -202 -113 -220 -10 -11 -26 -30 -34 -42
-53 -76 -192 -209 -276 -264 -51 -33 -93 -64 -93 -68 0 -13 98 13 162 43 145
67 242 162 320 316 33 66 61 182 56 236 l-4 39 -18 -40z"/>
<path d="M10080 80 l0 -80 80 0 80 0 0 80 0 80 -80 0 -80 0 0 -80z"/>
</g>
</svg>
